name D:\school\WTK\thesis\model\3dpredictsim\Results\Batchsim_tmt_linear_v2\Pog_s1_tmt_bCst_d00_k1000_ig24.mot
datacolumns 128
datarows 4
range 1.05172705 1.08327886
endheader
time	pelvis_tilt	pelvis_list	pelvis_rotation	pelvis_tx	pelvis_ty	pelvis_tz	hip_flexion_l	hip_adduction_l	hip_rotation_l	hip_flexion_r	hip_adduction_r	hip_rotation_r	knee_angle_l	knee_angle_r	ankle_angle_l	ankle_angle_r	subtalar_angle_l	subtalar_angle_r	tmt_angle_l	tmt_angle_r	mtp_angle_l	mtp_angle_r	lumbar_extension	lumbar_bending	lumbar_rotation	arm_flex_l	arm_add_l	arm_rot_l	arm_flex_r	arm_add_r	arm_rot_r	elbow_flex_l	elbow_flex_r	pro_sup_l	pro_sup_r	glut_med1_l/activation	glut_med2_l/activation	glut_med3_l/activation	glut_min1_l/activation	glut_min2_l/activation	glut_min3_l/activation	semimem_l/activation	semiten_l/activation	bifemlh_l/activation	bifemsh_l/activation	sar_l/activation	add_long_l/activation	add_brev_l/activation	add_mag1_l/activation	add_mag2_l/activation	add_mag3_l/activation	tfl_l/activation	pect_l/activation	grac_l/activation	glut_max1_l/activation	glut_max2_l/activation	glut_max3_l/activation	iliacus_l/activation	psoas_l/activation	quad_fem_l/activation	gem_l/activation	peri_l/activation	rect_fem_l/activation	vas_med_l/activation	vas_int_l/activation	vas_lat_l/activation	med_gas_l/activation	lat_gas_l/activation	soleus_l/activation	tib_post_l/activation	flex_dig_l/activation	flex_hal_l/activation	tib_ant_l/activation	per_brev_l/activation	per_long_l/activation	per_tert_l/activation	ext_dig_l/activation	ext_hal_l/activation	ercspn_l/activation	intobl_l/activation	extobl_l/activation	glut_med1_r/activation	glut_med2_r/activation	glut_med3_r/activation	glut_min1_r/activation	glut_min2_r/activation	glut_min3_r/activation	semimem_r/activation	semiten_r/activation	bifemlh_r/activation	bifemsh_r/activation	sar_r/activation	add_long_r/activation	add_brev_r/activation	add_mag1_r/activation	add_mag2_r/activation	add_mag3_r/activation	tfl_r/activation	pect_r/activation	grac_r/activation	glut_max1_r/activation	glut_max2_r/activation	glut_max3_r/activation	iliacus_r/activation	psoas_r/activation	quad_fem_r/activation	gem_r/activation	peri_r/activation	rect_fem_r/activation	vas_med_r/activation	vas_int_r/activation	vas_lat_r/activation	med_gas_r/activation	lat_gas_r/activation	soleus_r/activation	tib_post_r/activation	flex_dig_r/activation	flex_hal_r/activation	tib_ant_r/activation	per_brev_r/activation	per_long_r/activation	per_tert_r/activation	ext_dig_r/activation	ext_hal_r/activation	ercspn_r/activation	intobl_r/activation	extobl_r/activation	
          1.05172705	         -2.05431908	          1.02039995	          4.64820634	          1.31465881	          0.87272219	         -0.00182570	        -18.59823739	          1.50270322	          4.96232334	         25.48328457	         -0.21660706	         -2.56985807	         -5.58087137	         -7.46588649	         -8.09600763	          6.68979198	          6.96470869	          3.45748579	          1.05380441	          0.03757029	         26.40832539	         -0.08876074	         -0.07147275	         -3.11144141	         -1.54277340	          3.52194812	        -13.47092820	         11.03842309	         -8.96147077	        -13.45062624	         13.63524634	         23.71019153	         16.77381051	         86.51662706	         86.51662706	          0.26787267	          0.08117147	          0.06906509	          0.24248211	          0.14424029	          0.08117174	          0.05000021	          0.05000006	          0.05000005	          0.05000011	          0.08724415	          0.11693353	          0.05390376	          0.05000459	          0.05000157	          0.05000021	          0.21124784	          0.07701182	          0.05001613	          0.05000062	          0.05000036	          0.05000045	          0.33346950	          0.61366988	          0.05470998	          0.05000024	          0.06906422	          0.25143638	          0.10371115	          0.10771284	          0.07976193	          0.17069395	          0.24981401	          0.20049989	          0.20646332	          0.17395486	          0.24813477	          0.05000000	          0.06224338	          0.13349789	          0.05000008	          0.05000002	          0.05000006	          0.05000003	          0.05000003	          0.05000097	          0.05876438	          0.05876442	          0.21818839	          0.05876452	          0.05876447	          0.05876316	          0.07398442	          0.05876454	          0.10390955	          0.05876405	          0.05000088	          0.09541162	          0.15730888	          0.09933780	          0.16479982	          0.14796647	          0.05000005	          0.07496150	          0.06906362	          0.05000025	          0.05000039	          0.17286316	          0.05876444	          0.05000063	          0.05000007	          0.13700696	          0.10484256	          0.05293492	          0.16397700	          0.17751473	          0.13771836	          0.05084357	          0.05000352	          0.05757480	          0.05000000	          0.05000013	          0.05000013	          0.55242600	          0.27940766	          0.15958519	          0.40254711	          0.52809435	          0.33066162	          0.05000006	          0.13786420	          0.12714755	
          1.06224432	         -2.03852871	          1.06909807	          4.79007512	          1.33099606	          0.87149407	         -0.00171729	        -18.42585197	          1.36814395	          4.72901535	         24.96521295	         -0.08356715	         -2.33256423	         -7.65420893	         -7.92273785	         -8.72586948	          5.98664358	          7.90749733	          3.05267819	          0.96874132	          0.02464094	         27.19489577	         -0.04609107	          0.13448447	         -2.92634104	         -1.58788203	          3.31622683	        -13.49038414	         11.26975891	        -10.05369009	        -13.45080673	         13.52174246	         24.44381648	         16.82692666	         86.51662706	         86.51662706	          0.22792093	          0.06906520	          0.05876443	          0.20631727	          0.12272765	          0.06906544	          0.05000665	          0.05000020	          0.05000043	          0.05000004	          0.07423223	          0.18139634	          0.17269519	          0.05899194	          0.05875887	          0.05876691	          0.17974139	          0.06552605	          0.05000043	          0.05875770	          0.05876414	          0.05876446	          0.28373433	          0.53374595	          0.05876440	          0.05876450	          0.05876432	          0.21393600	          0.15486735	          0.15487377	          0.15487058	          0.14523587	          0.21255561	          0.17059646	          0.17567051	          0.14801064	          0.21112695	          0.05000001	          0.05296015	          0.14204483	          0.05000004	          0.05000002	          0.05000009	          0.05000001	          0.06906507	          0.06906526	          0.05000002	          0.05000013	          0.18564685	          0.05000012	          0.05000009	          0.05000010	          0.06295005	          0.05000015	          0.08841201	          0.05000001	          0.05000008	          0.08118153	          0.13384714	          0.22504265	          0.18842369	          0.14679325	          0.05876532	          0.06378158	          0.05876334	          0.09980945	          0.10375245	          0.14708166	          0.05000006	          0.05876378	          0.18895021	          0.11657315	          0.08920589	          0.06906511	          0.20294741	          0.22513395	          0.16370697	          0.05000001	          0.05000004	          0.05000000	          0.05876467	          0.06906496	          0.06906477	          0.47003465	          0.32440515	          0.19262728	          0.34250948	          0.44933210	          0.28134525	          0.05000000	          0.11730250	          0.10818418	
          1.07276159	         -2.01727226	          1.09981410	          4.90646974	          1.34753760	          0.87019984	         -0.00161603	        -18.15367719	          1.22214750	          4.48825289	         24.32915209	          0.00845883	         -2.08515908	         -9.90940224	         -8.68747423	         -9.34706054	          5.40111028	          8.82927966	          2.62920546	          0.84443900	         -0.00596667	         27.58653705	         -0.18583641	          0.35414838	         -2.70995044	         -1.62366788	          3.05135978	        -13.51198304	         11.46368045	        -11.14429709	        -13.45962502	         13.44768866	         25.17301508	         16.87523998	         86.51662706	         86.51662706	          0.26377100	          0.05876450	          0.05000004	          0.21768658	          0.10442351	          0.05876472	          0.05000095	          0.05000011	          0.05000008	          0.05000021	          0.06316424	          0.16912697	          0.15754185	          0.05019381	          0.05000076	          0.05000224	          0.15293398	          0.09546674	          0.05000053	          0.05000033	          0.05000028	          0.05000035	          0.24141691	          0.49856241	          0.05000004	          0.05000017	          0.05000004	          0.18202861	          0.13176975	          0.13177521	          0.13177250	          0.12357472	          0.18085409	          0.14515292	          0.14947023	          0.12593574	          0.17963857	          0.05000001	          0.12484123	          0.13864004	          0.05000021	          0.11106233	          0.05000013	          0.05000036	          0.05876439	          0.05876456	          0.22004767	          0.22810389	          0.35252237	          0.28997627	          0.21965163	          0.21091581	          0.07555737	          0.05000038	          0.08826273	          0.08117146	          0.05878129	          0.06907376	          0.11388458	          0.19147878	          0.16032136	          0.14224366	          0.05000087	          0.05426926	          0.05000021	          0.14670366	          0.13831854	          0.12514570	          0.05876018	          0.05000028	          0.16076934	          0.09918711	          0.21407692	          0.05876443	          0.17267892	          0.19155645	          0.13929097	          0.05000021	          0.05000240	          0.05000039	          0.05000027	          0.05876445	          0.05876440	          0.54684451	          0.33697011	          0.17323881	          0.41170928	          0.55297686	          0.33971121	          0.05000003	          0.09980747	          0.09204910	
          1.08327886	         -1.99325006	          1.12033790	          4.99695434	          1.36406711	          0.86884003	         -0.00149458	        -17.78044358	          1.07339932	          4.24157506	         23.61893534	          0.10636048	         -1.83493616	        -12.32508717	         -9.38616502	         -9.87464765	          4.91076842	          9.70945123	          2.18080726	          0.67944102	         -0.01666396	         27.36918069	         -0.18562919	          0.56649429	         -2.47543528	         -1.65086801	          2.76868141	        -13.54063053	         11.64675376	        -12.18955208	        -13.47234206	         13.42858238	         25.87471247	         16.89521096	         86.51662706	         86.51662706	          0.22443100	          0.05000012	          0.05000001	          0.18521987	          0.08884933	          0.05000031	          0.05000106	          0.05000009	          0.05000011	          0.05000004	          0.05374378	          0.20230638	          0.22261006	          0.05000080	          0.05000529	          0.12962868	          0.13012474	          0.08122857	          0.05000018	          0.05000075	          0.05000058	          0.05000058	          0.20541090	          0.44416656	          0.05000005	          0.05000014	          0.05000005	          0.15488003	          0.11212195	          0.11212200	          0.11212193	          0.10514422	          0.15388069	          0.12350415	          0.12717760	          0.10715319	          0.15284653	          0.06215102	          0.10622205	          0.11796267	          0.08117086	          0.18885375	          0.05001749	          0.07906389	          0.05000002	          0.05000015	          0.30954090	          0.33236384	          0.41069789	          0.29793421	          0.20917026	          0.31626483	          0.06428873	          0.08556506	          0.07509896	          0.06906523	          0.05001443	          0.05877181	          0.09689934	          0.16292099	          0.21393087	          0.17477435	          0.05000010	          0.05876321	          0.08117281	          0.21629791	          0.19024714	          0.18587438	          0.05000006	          0.05000005	          0.13679148	          0.08439394	          0.22843601	          0.05000004	          0.14692484	          0.16298691	          0.11851652	          0.05000000	          0.05000001	          0.05000000	          0.05000000	          0.05000008	          0.05000004	          0.61092670	          0.28671290	          0.14740122	          0.65363968	          0.57609472	          0.42884159	          0.05436633	          0.08492173	          0.07832047	
